mtllib model_2.mtl
o model_2
v -188.41912841796875 -0.0000022645560875389492 -127.6023941040039 
v 192.65281677246094 -0.0000022645560875389492 -127.6023941040039 
v -188.41912841796875 -0.0000022645560875389492 126.38158416748047 
v 192.65281677246094 -0.0000022645560875389492 126.38158416748047 
v 192.72288513183594 0.22101838886737823 126.38158416748047 
v 192.72288513183594 0.22101838886737823 -127.6023941040039 
v -188.3549041748047 0.22101838886737823 126.38158416748047 
v -188.3549041748047 0.22101838886737823 -127.6023941040039 
v -188.41912841796875 -0.0000022645560875389492 126.38158416748047 
v -188.3549041748047 0.22101838886737823 126.38158416748047 
v -188.41912841796875 -0.0000022645560875389492 -127.6023941040039 
v -188.3549041748047 0.22101838886737823 -127.6023941040039 
v -188.41912841796875 -0.0000022645560875389492 -127.6023941040039 
v -188.3549041748047 0.22101838886737823 -127.6023941040039 
v 192.65281677246094 -0.0000022645560875389492 -127.6023941040039 
v 192.72288513183594 0.22101838886737823 -127.6023941040039 
v 192.65281677246094 -0.0000022645560875389492 126.38158416748047 
v 192.72288513183594 0.22101838886737823 126.38158416748047 
v -188.41912841796875 -0.0000022645560875389492 126.38158416748047 
v -188.3549041748047 0.22101838886737823 126.38158416748047 
v 192.65281677246094 -0.0000022645560875389492 -127.6023941040039 
v 192.72288513183594 0.22101838886737823 -127.6023941040039 
v 192.65281677246094 -0.0000022645560875389492 126.38158416748047 
v 192.72288513183594 0.22101838886737823 126.38158416748047 
vn 4.485774680309737e-15 -0.014480022713541985 0.00003163449582643807 
vn 4.485774680309737e-15 -0.014480022713541985 0.00003163449582643807 
vn 4.485774680309737e-15 -0.014480022713541985 0.00003163449582643807 
vn 4.485774680309737e-15 -0.014480022713541985 0.00003163449582643807 
vn -1.4974015730568604e-15 0.014480022713541985 0.00003163449582643807 
vn -1.4974015730568604e-15 0.014480022713541985 0.00003163449582643807 
vn -1.4974015730568604e-15 0.014480022713541985 0.00003163449582643807 
vn -1.4974015730568604e-15 0.014480022713541985 0.00003163449582643807 
vn -0.013856517150998116 0.004203328862786293 0.00003163449582643807 
vn -0.013856517150998116 0.004203328862786293 0.00003163449582643807 
vn -0.013856517150998116 0.004203328862786293 0.00003163449582643807 
vn -0.013856517150998116 0.004203328862786293 0.00003163449582643807 
vn -2.9948105576520093e-15 0 -0.014480057172477245 
vn -2.9948105576520093e-15 0 -0.014480057172477245 
vn -2.9948105576520093e-15 0 -0.014480057172477245 
vn -2.9948105576520093e-15 0 -0.014480057172477245 
vn 0 0 0.014480057172477245 
vn 0 0 0.014480057172477245 
vn 0 0 0.014480057172477245 
vn 0 0 0.014480057172477245 
vn 0.013856517150998116 -0.004203328862786293 0.00003163449582643807 
vn 0.013856517150998116 -0.004203328862786293 0.00003163449582643807 
vn 0.013856517150998116 -0.004203328862786293 0.00003163449582643807 
vn 0.013856517150998116 -0.004203328862786293 0.00003163449582643807 
vt 0.9910860061645508 0 
vt 0.9910860061645508 0.7482589483261108 
vt 0.49676385521888733 0 
vt 0.49676385521888733 0.7482589483261108 
vt 0 0 
vt 0.49420008063316345 0 
vt 0 0.7482589483261108 
vt 0.49420008063316345 0.7482589483261108 
vt 0.9999982118606567 0.9999982118606567 
vt 0.999509871006012 0.9999982118606567 
vt 0.9999982118606567 0.5012810230255127 
vt 0.999509871006012 0.5012810230255127 
vt 0.9935277104377747 0 
vt 0.9940160512924194 0.00012208499538246542 
vt 0.9935277104377747 0.7482589483261108 
vt 0.9940160512924194 0.7483810782432556 
vt 0.9965798258781433 0.00012208499538246542 
vt 0.9969460964202881 0 
vt 0.9965798258781433 0.7483810782432556 
vt 0.9969460964202881 0.7482589483261108 
vt 0.9999982118606567 0.49871721863746643 
vt 0.999509871006012 0.49871721863746643 
vt 0.9999982118606567 0 
vt 0.999509871006012 0 
s on 
f 1/1/1 2/2/2 3/3/3 
f 2/2/2 4/4/4 3/3/3 
f 3/3/3 4/4/4 4/4/4 
f 4/4/4 5/5/5 4/4/4 
f 4/4/4 5/5/5 5/5/5 
f 5/5/5 6/6/6 5/5/5 
f 5/5/5 6/6/6 7/7/7 
f 6/6/6 8/8/8 7/7/7 
f 7/7/7 8/8/8 8/8/8 
f 8/8/8 9/9/9 8/8/8 
f 8/8/8 9/9/9 9/9/9 
f 9/9/9 10/10/10 9/9/9 
f 9/9/9 10/10/10 11/11/11 
f 10/10/10 12/12/12 11/11/11 
f 11/11/11 12/12/12 12/12/12 
f 12/12/12 13/13/13 12/12/12 
f 12/12/12 13/13/13 13/13/13 
f 13/13/13 14/14/14 13/13/13 
f 13/13/13 14/14/14 15/15/15 
f 14/14/14 16/16/16 15/15/15 
f 15/15/15 16/16/16 16/16/16 
f 16/16/16 17/17/17 16/16/16 
f 16/16/16 17/17/17 17/17/17 
f 17/17/17 18/18/18 17/17/17 
f 17/17/17 18/18/18 19/19/19 
f 18/18/18 20/20/20 19/19/19 
f 19/19/19 20/20/20 20/20/20 
f 20/20/20 21/21/21 20/20/20 
f 20/20/20 21/21/21 21/21/21 
f 21/21/21 22/22/22 21/21/21 
f 21/21/21 22/22/22 23/23/23 
f 22/22/22 24/24/24 23/23/23 

