mtllib model_2.mtl
o model_2
v -14.954489707946777 3.000153064727783 -14.956974029541016 
v -14.954489707946777 9.969664573669434 -14.956974029541016 
v -14.954489707946777 3.0098938941955566 -4.981130123138428 
v -14.954489707946777 8.722847938537598 -4.981130123138428 
v -14.954489707946777 3.0147643089294434 4.984826564788818 
v -14.954489707946777 7.4760308265686035 4.984826564788818 
v 14.954503059387207 0 -14.956974029541016 
v 14.954503059387207 3.000153064727783 -14.956974029541016 
v 11.959219932556152 0 -14.956974029541016 
v 11.959219932556152 3.000153064727783 -14.956974029541016 
v 8.978549003601074 0 -14.956974029541016 
v 8.978549003601074 3.000153064727783 -14.956974029541016 
v 5.983266353607178 0 -14.956974029541016 
v 5.983266353607178 3.000153064727783 -14.956974029541016 
v 2.9879837036132812 0 -14.956974029541016 
v 2.9879837036132812 3.000153064727783 -14.956974029541016 
v 5.983266353607178 9.969664573669434 -14.956974029541016 
v 2.9879837036132812 9.969664573669434 -14.956974029541016 
v 0.0073121474124491215 3.000153064727783 -14.956974029541016 
v 0.0073121474124491215 9.969664573669434 -14.956974029541016 
v -2.9879705905914307 3.000153064727783 -14.956974029541016 
v -2.9879705905914307 9.969664573669434 -14.956974029541016 
v -5.983253479003906 3.000153064727783 -14.956974029541016 
v -5.983253479003906 9.969664573669434 -14.956974029541016 
v 14.954503059387207 9.969664573669434 -14.956974029541016 
v 11.959219932556152 9.969664573669434 -14.956974029541016 
v 8.978549003601074 9.969664573669434 -14.956974029541016 
v -2.9879705905914307 0 -14.956974029541016 
v -5.983253479003906 0 -14.956974029541016 
v -8.978535652160645 0 -14.956974029541016 
v -8.978535652160645 3.000153064727783 -14.956974029541016 
v -11.959206581115723 0 -14.956974029541016 
v -11.959206581115723 3.000153064727783 -14.956974029541016 
v -14.954489707946777 0 -14.956974029541016 
v -14.954489707946777 3.000153064727783 -14.956974029541016 
v -11.959206581115723 9.969664573669434 -14.956974029541016 
v -14.954489707946777 9.969664573669434 -14.956974029541016 
v -8.978535652160645 9.969664573669434 -14.956974029541016 
v 14.954503059387207 0 4.984826564788818 
v 14.954503059387207 3.0147643089294434 4.984826564788818 
v 14.954503059387207 0 -4.981130123138428 
v 14.954503059387207 3.0098938941955566 -4.981130123138428 
v 14.954503059387207 0 -14.956974029541016 
v 14.954503059387207 3.000153064727783 -14.956974029541016 
v 14.954503059387207 8.722847938537598 -4.981130123138428 
v 14.954503059387207 9.969664573669434 -14.956974029541016 
v 14.954503059387207 7.4760308265686035 4.984826564788818 
v -14.954489707946777 0 4.984826564788818 
v -11.959206581115723 0 4.984826564788818 
v -14.954489707946777 3.0147643089294434 4.984826564788818 
v -11.959206581115723 3.0147643089294434 4.984826564788818 
v -14.954489707946777 7.4760308265686035 4.984826564788818 
v -11.959206581115723 7.4760308265686035 4.984826564788818 
v -8.978535652160645 3.0147643089294434 4.984826564788818 
v -8.978535652160645 7.4760308265686035 4.984826564788818 
v -5.983253479003906 3.0147643089294434 4.984826564788818 
v -5.983253479003906 7.4760308265686035 4.984826564788818 
v -2.9879705905914307 3.0147643089294434 4.984826564788818 
v -2.9879705905914307 7.4760308265686035 4.984826564788818 
v -8.978535652160645 0 4.984826564788818 
v -5.983253479003906 0 4.984826564788818 
v -2.9879705905914307 0 4.984826564788818 
v 0.0073121474124491215 0 4.984826564788818 
v 0.0073121474124491215 3.0147643089294434 4.984826564788818 
v 2.9879837036132812 0 4.984826564788818 
v 2.9879837036132812 3.0147643089294434 4.984826564788818 
v 0.0073121474124491215 7.4760308265686035 4.984826564788818 
v 2.9879837036132812 7.4760308265686035 4.984826564788818 
v 5.983266353607178 3.0147643089294434 4.984826564788818 
v 5.983266353607178 7.4760308265686035 4.984826564788818 
v 8.978549003601074 3.0147643089294434 4.984826564788818 
v 8.978549003601074 0 4.984826564788818 
v 11.959219932556152 0 4.984826564788818 
v 11.959219932556152 3.0147643089294434 4.984826564788818 
v 8.978549003601074 7.4760308265686035 4.984826564788818 
v 5.983266353607178 0 4.984826564788818 
v 14.954503059387207 0 4.984826564788818 
v 14.954503059387207 3.0147643089294434 4.984826564788818 
v 11.959219932556152 7.4760308265686035 4.984826564788818 
v 14.954503059387207 7.4760308265686035 4.984826564788818 
v -2.9879705905914307 3.000153064727783 -14.956974029541016 
v -2.9879705905914307 3.000153064727783 -15.253579139709473 
v 0.0073121474124491215 3.000153064727783 -14.956974029541016 
v 0.0073121474124491215 3.000153064727783 -15.253579139709473 
v 2.9879837036132812 3.000153064727783 -14.956974029541016 
v 2.9879837036132812 3.000153064727783 -15.253579139709473 
v -2.9879705905914307 3.000153064727783 -15.253579139709473 
v -2.9879705905914307 3.000153064727783 -14.956974029541016 
v -2.9879705905914307 0 -15.253579139709473 
v -2.9879705905914307 0 -14.956974029541016 
v 2.9879837036132812 0 -15.253579139709473 
v 2.9879837036132812 0 -14.956974029541016 
v 2.9879837036132812 3.000153064727783 -15.253579139709473 
v 2.9879837036132812 3.000153064727783 -14.956974029541016 
vn 0.20060816407203674 0 0.00043826852925121784 
vn 0.20060816407203674 0 0.00043826852925121784 
vn 0.20060816407203674 0 0.00043826852925121784 
vn 0.20060816407203674 0 0.00043826852925121784 
vn 0.20060816407203674 0 0.00043826852925121784 
vn 0.20060816407203674 0 0.00043826852925121784 
vn 0 0 0.20060864090919495 
vn 0 0 0.20060864090919495 
vn 0 0 0.20060864090919495 
vn 0 0 0.20060864090919495 
vn 0 0 0.20060864090919495 
vn 0 0 0.20060864090919495 
vn 0 0 0.20060864090919495 
vn 0 0 0.20060864090919495 
vn 0 0 0.20060864090919495 
vn 0 0 0.20060864090919495 
vn 0 0 0.20060864090919495 
vn 0 0 0.20060864090919495 
vn 0 0 0.20060864090919495 
vn 0 0 0.20060864090919495 
vn 0 0 0.20060864090919495 
vn 0 0 0.20060864090919495 
vn 0 0 0.20060864090919495 
vn 0 0 0.20060864090919495 
vn 0 0 0.20060864090919495 
vn 0 0 0.20060864090919495 
vn 0 0 0.20060864090919495 
vn 0 0 0.20060864090919495 
vn 0 0 0.20060864090919495 
vn 0 0 0.20060864090919495 
vn 0 0 0.20060864090919495 
vn 0 0 0.20060864090919495 
vn 0 0 0.20060864090919495 
vn 0 0 0.20060864090919495 
vn 0 0 0.20060864090919495 
vn 0 0 0.20060864090919495 
vn 0 0 0.20060864090919495 
vn 0 0 0.20060864090919495 
vn -0.20060816407203674 -4.149040459073758e-14 0.00043826852925121784 
vn -0.20060816407203674 -4.149040459073758e-14 0.00043826852925121784 
vn -0.20060816407203674 -4.149040459073758e-14 0.00043826852925121784 
vn -0.20060816407203674 -4.149040459073758e-14 0.00043826852925121784 
vn -0.20060816407203674 -4.149040459073758e-14 0.00043826852925121784 
vn -0.20060816407203674 -4.149040459073758e-14 0.00043826852925121784 
vn -0.20060816407203674 -4.149040459073758e-14 0.00043826852925121784 
vn -0.20060816407203674 -4.149040459073758e-14 0.00043826852925121784 
vn -0.20060816407203674 -4.149040459073758e-14 0.00043826852925121784 
vn -4.149050284655946e-14 0 -0.20060864090919495 
vn -4.149050284655946e-14 0 -0.20060864090919495 
vn -4.149050284655946e-14 0 -0.20060864090919495 
vn -4.149050284655946e-14 0 -0.20060864090919495 
vn -4.149050284655946e-14 0 -0.20060864090919495 
vn -4.149050284655946e-14 0 -0.20060864090919495 
vn -4.149050284655946e-14 0 -0.20060864090919495 
vn -4.149050284655946e-14 0 -0.20060864090919495 
vn -4.149050284655946e-14 0 -0.20060864090919495 
vn -4.149050284655946e-14 0 -0.20060864090919495 
vn -4.149050284655946e-14 0 -0.20060864090919495 
vn -4.149050284655946e-14 0 -0.20060864090919495 
vn -4.149050284655946e-14 0 -0.20060864090919495 
vn -4.149050284655946e-14 0 -0.20060864090919495 
vn -4.149050284655946e-14 0 -0.20060864090919495 
vn -4.149050284655946e-14 0 -0.20060864090919495 
vn -4.149050284655946e-14 0 -0.20060864090919495 
vn -4.149050284655946e-14 0 -0.20060864090919495 
vn -4.149050284655946e-14 0 -0.20060864090919495 
vn -4.149050284655946e-14 0 -0.20060864090919495 
vn -4.149050284655946e-14 0 -0.20060864090919495 
vn -4.149050284655946e-14 0 -0.20060864090919495 
vn -4.149050284655946e-14 0 -0.20060864090919495 
vn -4.149050284655946e-14 0 -0.20060864090919495 
vn -4.149050284655946e-14 0 -0.20060864090919495 
vn -4.149050284655946e-14 0 -0.20060864090919495 
vn -4.149050284655946e-14 0 -0.20060864090919495 
vn -4.149050284655946e-14 0 -0.20060864090919495 
vn -4.149050284655946e-14 0 -0.20060864090919495 
vn -4.149050284655946e-14 0 -0.20060864090919495 
vn -4.149050284655946e-14 0 -0.20060864090919495 
vn -4.149050284655946e-14 0 -0.20060864090919495 
vn -4.149050284655946e-14 0 -0.20060864090919495 
vn 6.214652273697774e-14 -0.20060816407203674 0.00043826852925121784 
vn 6.214652273697774e-14 -0.20060816407203674 0.00043826852925121784 
vn 6.214652273697774e-14 -0.20060816407203674 0.00043826852925121784 
vn 6.214652273697774e-14 -0.20060816407203674 0.00043826852925121784 
vn 6.214652273697774e-14 -0.20060816407203674 0.00043826852925121784 
vn 6.214652273697774e-14 -0.20060816407203674 0.00043826852925121784 
vn 0.20060816407203674 0 0.00043826852925121784 
vn 0.20060816407203674 0 0.00043826852925121784 
vn 0.20060816407203674 0 0.00043826852925121784 
vn 0.20060816407203674 0 0.00043826852925121784 
vn -0.20060816407203674 -4.149040459073758e-14 0.00043826852925121784 
vn -0.20060816407203674 -4.149040459073758e-14 0.00043826852925121784 
vn -0.20060816407203674 -4.149040459073758e-14 0.00043826852925121784 
vn -0.20060816407203674 -4.149040459073758e-14 0.00043826852925121784 
vt -3.1329727172851562 0.6692882776260376 
vt -3.1329727172851562 2.233736991882324 
vt -5.371033191680908 0.6716548800468445 
vt -5.371033191680908 1.9539728164672852 
vt -7.609179973602295 0.672336220741272 
vt -7.609179973602295 1.6742087602615356 
vt 3.6791982650756836 -0.003210583934560418 
vt 3.6791982650756836 0.6691986322402954 
vt 3.0090744495391846 -0.003210583934560418 
vt 3.0090744495391846 0.6691986322402954 
vt 2.3388640880584717 -0.003210583934560418 
vt 2.3388640880584717 0.6691986322402954 
vt 1.6686534881591797 -0.003210583934560418 
vt 1.6686534881591797 0.6691986322402954 
vt 0.9985297918319702 -0.003210583934560418 
vt 0.9985297918319702 0.6691986322402954 
vt 1.6686534881591797 2.2307069301605225 
vt 0.9985297918319702 2.2307069301605225 
vt 0.3283192813396454 0.6691986322402954 
vt 0.3283192813396454 2.2307069301605225 
vt -0.3418043851852417 0.6691986322402954 
vt -0.3418043851852417 2.2307069301605225 
vt -1.0120148658752441 0.6691986322402954 
vt -1.0120148658752441 2.2307069301605225 
vt 3.6791982650756836 2.2307069301605225 
vt 3.0090744495391846 2.2307069301605225 
vt 2.3388640880584717 2.2307069301605225 
vt -0.3418043851852417 -0.003210583934560418 
vt -1.0120148658752441 -0.003210583934560418 
vt -1.6821385622024536 -0.003210583934560418 
vt -1.6821385622024536 0.6691986322402954 
vt -2.352349042892456 -0.003210583934560418 
vt -2.352349042892456 0.6691986322402954 
vt -3.022559642791748 -0.003210583934560418 
vt -3.022559642791748 0.6691986322402954 
vt -2.352349042892456 2.2307069301605225 
vt -3.022559642791748 2.2307069301605225 
vt -1.6821385622024536 2.2307069301605225 
vt -7.609179973602295 -0.004375969059765339 
vt -7.609179973602295 0.672336220741272 
vt -5.371033191680908 -0.004375969059765339 
vt -5.371033191680908 0.6716548800468445 
vt -3.1329727172851562 -0.004375969059765339 
vt -3.1329727172851562 0.6692882776260376 
vt -5.371033191680908 1.9539728164672852 
vt -3.1329727172851562 2.233736991882324 
vt -7.609179973602295 1.6742087602615356 
vt -3.022559642791748 -0.003210583934560418 
vt -2.352349042892456 -0.003210583934560418 
vt -3.022559642791748 0.6722465753555298 
vt -2.352349042892456 0.6722465753555298 
vt -3.022559642791748 1.6722365617752075 
vt -2.352349042892456 1.6722365617752075 
vt -1.6821385622024536 0.6722465753555298 
vt -1.6821385622024536 1.6722365617752075 
vt -1.0120148658752441 0.6722465753555298 
vt -1.0120148658752441 1.6722365617752075 
vt -0.3418043851852417 0.6722465753555298 
vt -0.3418043851852417 1.6722365617752075 
vt -1.6821385622024536 -0.003210583934560418 
vt -1.0120148658752441 -0.003210583934560418 
vt -0.3418043851852417 -0.003210583934560418 
vt 0.3283192813396454 -0.003210583934560418 
vt 0.3283192813396454 0.6722465753555298 
vt 0.9985297918319702 -0.003210583934560418 
vt 0.9985297918319702 0.6722465753555298 
vt 0.3283192813396454 1.6722365617752075 
vt 0.9985297918319702 1.6722365617752075 
vt 1.6686534881591797 0.6722465753555298 
vt 1.6686534881591797 1.6722365617752075 
vt 2.3388640880584717 0.6722465753555298 
vt 2.3388640880584717 -0.003210583934560418 
vt 3.0090744495391846 -0.003210583934560418 
vt 3.0090744495391846 0.6722465753555298 
vt 2.3388640880584717 1.6722365617752075 
vt 1.6686534881591797 -0.003210583934560418 
vt 3.6791982650756836 -0.003210583934560418 
vt 3.6791982650756836 0.6722465753555298 
vt 3.0090744495391846 1.6722365617752075 
vt 3.6791982650756836 1.6722365617752075 
vt -0.3451923727989197 -0.11623500287532806 
vt -0.3451923727989197 -0.049180541187524796 
vt 0.32527878880500793 -0.11623500287532806 
vt 0.32527878880500793 -0.049180541187524796 
vt 0.9958367943763733 -0.11623500287532806 
vt 0.9958367943763733 -0.049180541187524796 
vt 3.777101993560791 0.6754199862480164 
vt 3.7093424797058105 0.6754199862480164 
vt 3.777101993560791 -0.004053247161209583 
vt 3.7093424797058105 -0.004053247161209583 
vt 3.777101993560791 -0.004053247161209583 
vt 3.7093424797058105 -0.004053247161209583 
vt 3.777101993560791 0.6754199862480164 
vt 3.7093424797058105 0.6754199862480164 
s on 
f 1/1/1 2/2/2 3/3/3 
f 2/2/2 4/4/4 3/3/3 
f 3/3/3 4/4/4 5/5/5 
f 4/4/4 6/6/6 5/5/5 
f 5/5/5 6/6/6 6/6/6 
f 6/6/6 7/7/7 6/6/6 
f 6/6/6 7/7/7 7/7/7 
f 7/7/7 8/8/8 7/7/7 
f 7/7/7 8/8/8 9/9/9 
f 8/8/8 10/10/10 9/9/9 
f 9/9/9 10/10/10 11/11/11 
f 10/10/10 12/12/12 11/11/11 
f 11/11/11 12/12/12 13/13/13 
f 12/12/12 14/14/14 13/13/13 
f 13/13/13 14/14/14 15/15/15 
f 14/14/14 14/14/14 15/15/15 
f 15/15/15 14/14/14 16/16/16 
f 14/14/14 17/17/17 16/16/16 
f 16/16/16 17/17/17 16/16/16 
f 17/17/17 18/18/18 16/16/16 
f 16/16/16 18/18/18 19/19/19 
f 18/18/18 20/20/20 19/19/19 
f 19/19/19 20/20/20 21/21/21 
f 20/20/20 22/22/22 21/21/21 
f 21/21/21 22/22/22 23/23/23 
f 22/22/22 24/24/24 23/23/23 
f 23/23/23 24/24/24 24/24/24 
f 24/24/24 8/8/8 24/24/24 
f 24/24/24 8/8/8 8/8/8 
f 8/8/8 25/25/25 8/8/8 
f 8/8/8 25/25/25 10/10/10 
f 25/25/25 26/26/26 10/10/10 
f 10/10/10 26/26/26 12/12/12 
f 26/26/26 27/27/27 12/12/12 
f 12/12/12 27/27/27 14/14/14 
f 27/27/27 17/17/17 14/14/14 
f 14/14/14 17/17/17 17/17/17 
f 17/17/17 28/28/28 17/17/17 
f 17/17/17 28/28/28 28/28/28 
f 28/28/28 21/21/21 28/28/28 
f 28/28/28 21/21/21 29/29/29 
f 21/21/21 23/23/23 29/29/29 
f 29/29/29 23/23/23 30/30/30 
f 23/23/23 31/31/31 30/30/30 
f 30/30/30 31/31/31 32/32/32 
f 31/31/31 33/33/33 32/32/32 
f 32/32/32 33/33/33 34/34/34 
f 33/33/33 33/33/33 34/34/34 
f 34/34/34 33/33/33 35/35/35 
f 33/33/33 36/36/36 35/35/35 
f 35/35/35 36/36/36 37/37/37 
f 36/36/36 37/37/37 37/37/37 
f 37/37/37 37/37/37 23/23/23 
f 37/37/37 23/23/23 23/23/23 
f 23/23/23 23/23/23 31/31/31 
f 23/23/23 24/24/24 31/31/31 
f 31/31/31 24/24/24 31/31/31 
f 24/24/24 38/38/38 31/31/31 
f 31/31/31 38/38/38 33/33/33 
f 38/38/38 36/36/36 33/33/33 
f 33/33/33 36/36/36 36/36/36 
f 36/36/36 39/39/39 36/36/36 
f 36/36/36 39/39/39 39/39/39 
f 39/39/39 40/40/40 39/39/39 
f 39/39/39 40/40/40 41/41/41 
f 40/40/40 42/42/42 41/41/41 
f 41/41/41 42/42/42 43/43/43 
f 42/42/42 42/42/42 43/43/43 
f 43/43/43 42/42/42 44/44/44 
f 42/42/42 45/45/45 44/44/44 
f 44/44/44 45/45/45 46/46/46 
f 45/45/45 46/46/46 46/46/46 
f 46/46/46 46/46/46 40/40/40 
f 46/46/46 40/40/40 40/40/40 
f 40/40/40 40/40/40 42/42/42 
f 40/40/40 47/47/47 42/42/42 
f 42/42/42 47/47/47 45/45/45 
f 47/47/47 45/45/45 45/45/45 
f 45/45/45 45/45/45 48/48/48 
f 45/45/45 48/48/48 48/48/48 
f 48/48/48 48/48/48 49/49/49 
f 48/48/48 50/50/50 49/49/49 
f 49/49/49 50/50/50 51/51/51 
f 50/50/50 52/52/52 51/51/51 
f 51/51/51 52/52/52 51/51/51 
f 52/52/52 53/53/53 51/51/51 
f 51/51/51 53/53/53 54/54/54 
f 53/53/53 55/55/55 54/54/54 
f 54/54/54 55/55/55 56/56/56 
f 55/55/55 57/57/57 56/56/56 
f 56/56/56 57/57/57 58/58/58 
f 57/57/57 59/59/59 58/58/58 
f 58/58/58 59/59/59 59/59/59 
f 59/59/59 49/49/49 59/59/59 
f 59/59/59 49/49/49 49/49/49 
f 49/49/49 51/51/51 49/49/49 
f 49/49/49 51/51/51 60/60/60 
f 51/51/51 54/54/54 60/60/60 
f 60/60/60 54/54/54 61/61/61 
f 54/54/54 56/56/56 61/61/61 
f 61/61/61 56/56/56 62/62/62 
f 56/56/56 58/58/58 62/62/62 
f 62/62/62 58/58/58 63/63/63 
f 58/58/58 64/64/64 63/63/63 
f 63/63/63 64/64/64 65/65/65 
f 64/64/64 64/64/64 65/65/65 
f 65/65/65 64/64/64 66/66/66 
f 64/64/64 67/67/67 66/66/66 
f 66/66/66 67/67/67 66/66/66 
f 67/67/67 68/68/68 66/66/66 
f 66/66/66 68/68/68 69/69/69 
f 68/68/68 70/70/70 69/69/69 
f 69/69/69 70/70/70 69/69/69 
f 70/70/70 71/71/71 69/69/69 
f 69/69/69 71/71/71 72/72/72 
f 71/71/71 71/71/71 72/72/72 
f 72/72/72 71/71/71 73/73/73 
f 71/71/71 71/71/71 73/73/73 
f 73/73/73 71/71/71 74/74/74 
f 71/71/71 71/71/71 74/74/74 
f 74/74/74 71/71/71 75/75/75 
f 71/71/71 70/70/70 75/75/75 
f 75/75/75 70/70/70 70/70/70 
f 70/70/70 58/58/58 70/70/70 
f 70/70/70 58/58/58 58/58/58 
f 58/58/58 59/59/59 58/58/58 
f 58/58/58 59/59/59 64/64/64 
f 59/59/59 67/67/67 64/64/64 
f 64/64/64 67/67/67 67/67/67 
f 67/67/67 65/65/65 67/67/67 
f 67/67/67 65/65/65 65/65/65 
f 65/65/65 66/66/66 65/65/65 
f 65/65/65 66/66/66 76/76/76 
f 66/66/66 69/69/69 76/76/76 
f 76/76/76 69/69/69 72/72/72 
f 69/69/69 72/72/72 72/72/72 
f 72/72/72 72/72/72 73/73/73 
f 72/72/72 73/73/73 73/73/73 
f 73/73/73 73/73/73 77/77/77 
f 73/73/73 74/74/74 77/77/77 
f 77/77/77 74/74/74 78/78/78 
f 74/74/74 79/79/79 78/78/78 
f 78/78/78 79/79/79 80/80/80 
f 79/79/79 80/80/80 80/80/80 
f 80/80/80 80/80/80 74/74/74 
f 80/80/80 74/74/74 74/74/74 
f 74/74/74 74/74/74 79/79/79 
f 74/74/74 75/75/75 79/79/79 
f 79/79/79 75/75/75 75/75/75 
f 75/75/75 81/81/81 75/75/75 
f 75/75/75 81/81/81 81/81/81 
f 81/81/81 82/82/82 81/81/81 
f 81/81/81 82/82/82 83/83/83 
f 82/82/82 84/84/84 83/83/83 
f 83/83/83 84/84/84 85/85/85 
f 84/84/84 86/86/86 85/85/85 
f 85/85/85 86/86/86 86/86/86 
f 86/86/86 87/87/87 86/86/86 
f 86/86/86 87/87/87 87/87/87 
f 87/87/87 88/88/88 87/87/87 
f 87/87/87 88/88/88 89/89/89 
f 88/88/88 90/90/90 89/89/89 
f 89/89/89 90/90/90 90/90/90 
f 90/90/90 91/91/91 90/90/90 
f 90/90/90 91/91/91 91/91/91 
f 91/91/91 92/92/92 91/91/91 
f 91/91/91 92/92/92 93/93/93 
f 92/92/92 94/94/94 93/93/93 

