mtllib model_16.mtl
o model_16
v -3.019453763961792 0.029330499470233917 -24.51586151123047 
v -3.019453763961792 0.029330499470233917 -15.16663932800293 
v 3.019392490386963 0.029330499470233917 -24.51586151123047 
v 3.019392490386963 0.029330499470233917 -15.16663932800293 
v 3.019392490386963 0.029330499470233917 -5.1162261962890625 
v -3.019453763961792 0.029330499470233917 -5.1162261962890625 
v 3.019392490386963 0.029330499470233917 5.167916774749756 
v -3.019453763961792 0.029330499470233917 5.167916774749756 
v 15.338638305664062 0.029330499470233917 5.167916774749756 
v 15.338638305664062 0.029330499470233917 -5.1162261962890625 
v 3.019392490386963 0.029330499470233917 -5.1162261962890625 
v 15.338638305664062 0.029330499470233917 -15.16663932800293 
v 3.019392490386963 0.029330499470233917 -15.16663932800293 
v -15.338700294494629 0.029330499470233917 5.167916774749756 
v -3.019453763961792 0.029330499470233917 -5.1162261962890625 
v -15.338700294494629 0.029330499470233917 -5.1162261962890625 
v -3.019453763961792 0.029330499470233917 -15.16663932800293 
v -15.338700294494629 0.029330499470233917 -15.16663932800293 
vn -6.741855829167512e-15 0.06519442051649094 0.00021486188052222133 
vn -6.741855829167512e-15 0.06519442051649094 0.00021486188052222133 
vn -6.741855829167512e-15 0.06519442051649094 0.00021486188052222133 
vn -6.741855829167512e-15 0.06519442051649094 0.00021486188052222133 
vn -6.741855829167512e-15 0.06519442051649094 0.00021486188052222133 
vn -6.741855829167512e-15 0.06519442051649094 0.00021486188052222133 
vn -6.741855829167512e-15 0.06519442051649094 0.00021486188052222133 
vn -6.741855829167512e-15 0.06519442051649094 0.00021486188052222133 
vn -6.741855829167512e-15 0.06519442051649094 0.00021486188052222133 
vn -6.741855829167512e-15 0.06519442051649094 0.00021486188052222133 
vn -6.741855829167512e-15 0.06519442051649094 0.00021486188052222133 
vn -6.741855829167512e-15 0.06519442051649094 0.00021486188052222133 
vn -6.741855829167512e-15 0.06519442051649094 0.00021486188052222133 
vn -6.741855829167512e-15 0.06519442051649094 0.00021486188052222133 
vn -6.741855829167512e-15 0.06519442051649094 0.00021486188052222133 
vn -6.741855829167512e-15 0.06519442051649094 0.00021486188052222133 
vn -6.741855829167512e-15 0.06519442051649094 0.00021486188052222133 
vn -6.741855829167512e-15 0.06519442051649094 0.00021486188052222133 
vt 0.14856337010860443 2.1265552043914795 
vt 0.14856337010860443 0.9990909099578857 
vt 0.8779007196426392 2.1265552043914795 
vt 0.8779007196426392 0.9990909099578857 
vt 0.8779007196426392 -0.22725453972816467 
vt 0.14856337010860443 -0.22725453972816467 
vt 0.8779007196426392 -1.4536000490188599 
vt 0.14856337010860443 -1.4536000490188599 
vt 2.3632240295410156 -1.4536000490188599 
vt 2.3632240295410156 -0.22725453972816467 
vt 0.8779007196426392 -0.22725453972816467 
vt 2.3632240295410156 0.9990909099578857 
vt 0.8779007196426392 0.9990909099578857 
vt -1.3367600440979004 -1.4536000490188599 
vt 0.14856337010860443 -0.22725453972816467 
vt -1.3367600440979004 -0.22725453972816467 
vt 0.14856337010860443 0.9990909099578857 
vt -1.3367600440979004 0.9990909099578857 
s on 
f 1/1/1 2/2/2 3/3/3 
f 2/2/2 2/2/2 3/3/3 
f 3/3/3 2/2/2 4/4/4 
f 2/2/2 2/2/2 4/4/4 
f 4/4/4 2/2/2 5/5/5 
f 2/2/2 6/6/6 5/5/5 
f 5/5/5 6/6/6 7/7/7 
f 6/6/6 8/8/8 7/7/7 
f 7/7/7 8/8/8 8/8/8 
f 8/8/8 9/9/9 8/8/8 
f 8/8/8 9/9/9 9/9/9 
f 9/9/9 10/10/10 9/9/9 
f 9/9/9 10/10/10 7/7/7 
f 10/10/10 10/10/10 7/7/7 
f 7/7/7 10/10/10 11/11/11 
f 10/10/10 12/12/12 11/11/11 
f 11/11/11 12/12/12 13/13/13 
f 12/12/12 13/13/13 13/13/13 
f 13/13/13 13/13/13 8/8/8 
f 13/13/13 8/8/8 8/8/8 
f 8/8/8 8/8/8 14/14/14 
f 8/8/8 15/15/15 14/14/14 
f 14/14/14 15/15/15 16/16/16 
f 15/15/15 17/17/17 16/16/16 
f 16/16/16 17/17/17 18/18/18 

